<svg xmlns="http://www.w3.org/2000/svg" width="400" height="220" style="fill-rule:evenodd;clip-rule:evenodd;stroke-linejoin:round;stroke-miterlimit:1.5" viewBox="0 0 400 220">
  <rect fill="#fff" width="400" height="220" rx="20"/>
  <path d="M400 17.6v184.8c0 9.714-7.886 17.6-17.6 17.6H17.6C7.886 220 0 212.114 0 202.4V17.6C0 7.886 7.886 0 17.6 0h364.8c9.714 0 17.6 7.886 17.6 17.6m-6 0c0-6.402-5.198-11.6-11.6-11.6H17.6C11.198 6 6 11.198 6 17.6v184.8c0 6.402 5.198 11.6 11.6 11.6h364.8c6.402 0 11.6-5.198 11.6-11.6z" style="fill:oklch(57.82% 0.19 16.36)"/>
  <path d="m150.639 73.449 23.372 23.372" style="fill:none;stroke:oklch(57.82% 0.19 16.36);stroke-width:8px"/>
  <path d="m.137-.457-.019.122L.1-.214l-.015.112-.011.096Q.071.012.065.018q-.006.005-.022 0a.2.2 0 0 1-.059-.03.1.1 0 0 1-.021-.026.1.1 0 0 1-.003-.04l.007-.089.012-.111.016-.122.018-.121a3 3 0 0 1 .032-.2q.006-.025.016-.033t.03-.003l.053.014.043.019q.014.008.022.015l.013.018.006.022.004.027.001.017.003.037.009.077.014.138.023-.068.027-.075.028-.076.027-.069.023-.059a.1.1 0 0 1 .019-.035q.01-.012.023-.014a.1.1 0 0 1 .033.007l.052.019a.4.4 0 0 1 .053.028.05.05 0 0 1 .023.025.1.1 0 0 1 0 .041l-.015.091-.037.233-.017.12-.015.108-.011.085-.01.026Q.479.022.462.016a.2.2 0 0 1-.06-.029.05.05 0 0 1-.021-.026.1.1 0 0 1-.002-.04l.007-.074Q.39-.198.397-.251l.014-.11.017-.109-.037.1-.039.11-.036.104-.027.084q-.007.021-.011.027-.005.006-.023.001L.209-.062.197-.071.188-.082.181-.1.175-.128a6 6 0 0 1-.038-.329" style="fill:oklch(57.82% 0.19 16.36);fill-rule:nonzero" transform="matrix(52 0 0 52 47.091 177.726)"/>
  <path d="m.275-.186-.096.02-.086.024a2 2 0 0 0-.045.137Q.042.012.035.015.027.018.012.01l-.019-.012-.02-.014-.017-.018-.008-.022a.2.2 0 0 1 .005-.041l.044-.15.056-.17a7 7 0 0 1 .114-.309A.1.1 0 0 1 .19-.76q.014-.013.041-.01a.3.3 0 0 1 .076.013l.055.02a.04.04 0 0 1 .025.022q.005.015.004.038v.136l.003.169.006.181.007.177a.04.04 0 0 1-.004.025Q.398.018.381.018L.349.017a.1.1 0 0 1-.031-.01.05.05 0 0 1-.022-.018.1.1 0 0 1-.01-.039zm-.123-.13a1 1 0 0 1 .115-.018L.263-.476.261-.612.21-.476Q.181-.4.152-.316" style="fill:oklch(57.82% 0.19 16.36);fill-rule:nonzero" transform="matrix(52 0 0 52 79.124 177.726)"/>
  <path d="M.034-.706a.3.3 0 0 1 .117-.052Q.184-.765.22-.763a.2.2 0 0 1 .131.067q.029.032.05.085.02.045.025.101a.6.6 0 0 1-.086.355.5.5 0 0 1-.204.173Q.101.038.065.009.046-.005.033-.019L.002-.052-.01-.07q-.006-.008-.01-.019a.2.2 0 0 1-.002-.066zm.069.568A.4.4 0 0 0 .19-.213a.5.5 0 0 0 .091-.181.5.5 0 0 0 .01-.13L.283-.558A.08.08 0 0 0 .245-.6Q.217-.613.179-.596a7 7 0 0 0-.076.458" style="fill:oklch(57.82% 0.19 16.36);fill-rule:nonzero" transform="matrix(52 0 0 52 104.032 177.726)"/>
  <path d="M.045-.71q.051-.018.12-.035a1 1 0 0 1 .138-.021q.033-.002.043.034l.012.034.007.033q.003.02-.001.028-.005.008-.022.011l-.073.011-.081.014-.016.078-.018.086.038-.006.038-.002.027.004q.01.006.017.023t.013.035l.008.035q.005.02.001.028-.005.008-.021.012l-.077.019-.077.021-.01.056-.01.054q.03-.008.058-.013l.06-.007a.05.05 0 0 1 .028.004.1.1 0 0 1 .017.023l.013.036.01.035q.004.02.001.027-.005.008-.021.013l-.086.025-.084.024Q.07.019.057.014a.1.1 0 0 1-.024-.016L.012-.025q-.01-.01-.023-.029a.1.1 0 0 1-.017-.033.2.2 0 0 1-.003-.045z" style="fill:oklch(57.82% 0.19 16.36);fill-rule:nonzero" transform="matrix(52 0 0 52 129.46 177.726)"/>
  <path d="M.313-.364a.14.14 0 0 1 .042.05.2.2 0 0 1 .021.068.2.2 0 0 1-.005.072.3.3 0 0 1-.074.103.4.4 0 0 1-.049.038A1 1 0 0 1 .145.02L.123.028Q.113.03.106.029.096.028.089.024L.071.01a.2.2 0 0 1-.034-.028Q.022-.032.003-.055L-.01-.076l-.008-.018-.004-.021.002-.03.012-.129.016-.144.016-.146q.007-.072.01-.134a.4.4 0 0 1 .177-.069.3.3 0 0 1 .091.002q.042.009.066.039a.3.3 0 0 1 .06.134.2.2 0 0 1-.008.09.3.3 0 0 1-.042.074l-.029.032zM.149-.427a.33.33 0 0 0 .152-.139Q.31-.588.307-.601.302-.622.266-.621a.2.2 0 0 0-.087.034 3 3 0 0 0-.03.16m-.026.149-.012.075L.1-.128a.4.4 0 0 0 .109-.068.2.2 0 0 0 .029-.038q.009-.019.006-.035a.03.03 0 0 0-.012-.017l-.026-.01a.1.1 0 0 0-.037.002.2.2 0 0 0-.046.016" style="fill:oklch(57.82% 0.19 16.36);fill-rule:nonzero" transform="matrix(52 0 0 52 159.505 177.726)"/>
  <path d="m.404-.644-.028.078-.043.104-.053.117-.055.118-.019.119-.015.111q-.004.02-.01.025Q.175.032.158.026L.125.011.093-.007a.1.1 0 0 1-.018-.028.1.1 0 0 1-.003-.039l.011-.097.013-.117L.071-.4.045-.514.021-.625 0-.722q-.005-.021-.002-.029.003-.007.019-.01l.034-.003a.1.1 0 0 1 .034.004q.017.005.025.017t.016.037a3 3 0 0 1 .058.246l.063-.146.06-.145q.005-.019.017-.02.011-.001.025.008l.027.023.023.026a.1.1 0 0 1 .012.031.1.1 0 0 1-.007.039" style="fill:oklch(57.82% 0.19 16.36);fill-rule:nonzero" transform="matrix(52 0 0 52 183.58 177.726)"/>
  <path d="m.428-.664-.026.142-.028.168-.028.178-.025.171q0 .014-.005.019a.02.02 0 0 1-.013.004Q.294.017.282.013L.257.003a.1.1 0 0 1-.042-.03Q.199-.044.205-.08l.007-.081.012-.099-.052.011-.053.011-.018.125-.015.107Q.083.011.077.016T.054.015L.021.001a.1.1 0 0 1-.03-.018.1.1 0 0 1-.021-.026.1.1 0 0 1-.001-.04q.012-.066.023-.15l.022-.171.02-.172.019-.151q.005-.025.014-.029t.026.004a.3.3 0 0 1 .076.045.1.1 0 0 1 .021.025.1.1 0 0 1-.001.033l-.021.111-.024.14.052-.007.048-.005.027-.177.025-.152q.005-.025.015-.029.009-.003.027.004.017.006.036.017l.035.026a.1.1 0 0 1 .02.025.1.1 0 0 1-.001.032" style="fill:oklch(57.82% 0.19 16.36);fill-rule:nonzero" transform="matrix(52 0 0 52 216.175 177.726)"/>
  <path d="M0-.102a.4.4 0 0 1-.02-.125q0-.073.01-.159Q0-.47.018-.558l.035-.164q.005-.022.015-.027.009-.004.027.004l.033.018q.016.011.031.025a.08.08 0 0 1 .021.08l-.021.096-.022.107q-.01.056-.017.108a1 1 0 0 0-.009.095.4.4 0 0 0 .003.071q.005.029.019.035.018.007.035-.023a.4.4 0 0 0 .031-.081 2 2 0 0 0 .051-.26l.02-.139.014-.117q.001-.022.013-.027a.04.04 0 0 1 .028.001.2.2 0 0 1 .036.018l.035.025a.1.1 0 0 1 .02.025.1.1 0 0 1 0 .032l-.029.227q-.015.105-.034.188a1 1 0 0 1-.044.143.3.3 0 0 1-.057.087.2.2 0 0 1-.046.024.2.2 0 0 1-.054.003.2.2 0 0 1-.098-.038.2.2 0 0 1-.03-.033A.2.2 0 0 1 0-.102" style="fill:oklch(57.82% 0.19 16.36);fill-rule:nonzero" transform="matrix(52 0 0 52 239.679 177.726)"/>
  <path d="m.137-.457-.019.122L.1-.214l-.015.112-.011.096Q.071.012.065.018q-.006.005-.022 0a.2.2 0 0 1-.059-.03.1.1 0 0 1-.021-.026.1.1 0 0 1-.003-.04l.007-.089.012-.111.016-.122.018-.121a3 3 0 0 1 .032-.2q.006-.025.016-.033t.03-.003l.053.014.043.019q.014.008.022.015l.013.018.006.022.004.027.001.017.003.037.009.077.014.138.023-.068.027-.075.028-.076.027-.069.023-.059a.1.1 0 0 1 .019-.035q.01-.012.023-.014a.1.1 0 0 1 .033.007l.052.019a.4.4 0 0 1 .053.028.05.05 0 0 1 .023.025.1.1 0 0 1 0 .041l-.015.091-.037.233-.017.12-.015.108-.011.085-.01.026Q.479.022.462.016a.2.2 0 0 1-.06-.029.05.05 0 0 1-.021-.026.1.1 0 0 1-.002-.04l.007-.074Q.39-.198.397-.251l.014-.11.017-.109-.037.1-.039.11-.036.104-.027.084q-.007.021-.011.027-.005.006-.023.001L.209-.062.197-.071.188-.082.181-.1.175-.128a6 6 0 0 1-.038-.329" style="fill:oklch(57.82% 0.19 16.36);fill-rule:nonzero" transform="matrix(52 0 0 52 263.13 177.726)"/>
  <path d="m.275-.186-.096.02-.086.024a2 2 0 0 0-.045.137Q.042.012.035.015.027.018.012.01l-.019-.012-.02-.014-.017-.018-.008-.022a.2.2 0 0 1 .005-.041l.044-.15.056-.17a7 7 0 0 1 .114-.309A.1.1 0 0 1 .19-.76q.014-.013.041-.01a.3.3 0 0 1 .076.013l.055.02a.04.04 0 0 1 .025.022q.005.015.004.038v.136l.003.169.006.181.007.177a.04.04 0 0 1-.004.025Q.398.018.381.018L.349.017a.1.1 0 0 1-.031-.01.05.05 0 0 1-.022-.018.1.1 0 0 1-.01-.039zm-.123-.13a1 1 0 0 1 .115-.018L.263-.476.261-.612.21-.476Q.181-.4.152-.316" style="fill:oklch(57.82% 0.19 16.36);fill-rule:nonzero" transform="matrix(52 0 0 52 295.163 177.726)"/>
  <path d="M.258-.314q.011-.115.028-.222l.031-.191q.004-.022.014-.028.009-.005.027.001l.03.012.033.023a.06.06 0 0 1 .02.028.1.1 0 0 1-.001.036 6 6 0 0 0-.048.311l-.023.172-.021.155Q.345.021.309.009L.278-.003.246-.017Q.217-.033.205-.077L.187-.146.168-.23.133-.415l-.016.113-.016.111-.014.1-.011.083Q.074.009.068.014.061.018.044.011L.012-.002a.1.1 0 0 1-.031-.02.05.05 0 0 1-.019-.026.1.1 0 0 1-.001-.04l.007-.072.011-.102.015-.121.018-.126.017-.118.017-.098q.005-.023.016-.029t.028 0l.042.017.042.023A.1.1 0 0 1 .2-.689a.2.2 0 0 1 .011.046l.008.06.012.082.013.093z" style="fill:oklch(57.82% 0.19 16.36);fill-rule:nonzero" transform="matrix(52 0 0 52 320.07 177.726)"/>
  <path d="M104.17 43.176q-3.327 9.345-6.912 34.944-.255 1.024-.512 1.024-.512 0-.512-1.024-.896-6.016-1.664-16.192t-1.024-12.48q-.255-2.432-2.56-3.456-3.84-1.663-11.648-3.328T68.202 41q-2.175 0-3.2 2.176-3.711 9.6-9.024 36.416-5.312 26.817-5.696 39.232 0 2.688 2.048 3.584 2.688 1.281 9.536 3.264 6.849 1.984 8.896 1.984 2.177 0 2.432-2.176 1.536-15.871 4.736-38.016 0-1.023.512-1.024.129 0 .384 1.024 2.944 21.12 5.76 32.128.513 2.433 2.816 3.456 3.585 1.665 11.328 3.264 7.744 1.6 10.816 1.6 2.305 0 2.56-2.304 2.176-19.711 7.168-42.048 4.993-22.335 8.704-33.728l.128-.64q0-2.047-1.792-2.688-3.328-1.28-10.432-3.2-7.103-1.92-8.768-1.92-2.304 0-2.944 1.792m61.312 19.584q2.817 0 4.032 2.944 1.216 2.944 1.216 6.4 0 12.033-4.16 22.592-4.16 10.56-9.152 10.56-5.504 0-5.504-11.008 0-10.111 4.416-20.8t9.152-10.688m-4.224 65.152q9.088 0 16.384-5.44t11.392-13.696 6.272-16.96 2.176-16.512q0-12.543-5.12-19.968-4.224-6.144-15.36-10.368t-17.28-4.224q-8.832 0-16 5.696-7.167 5.697-11.072 14.208-3.903 8.513-5.952 17.088-2.048 8.577-2.048 15.616 0 14.465 6.272 21.632 6.016 6.657 14.08 9.792 8.064 3.136 16.256 3.136m41.856-43.648a148 148 0 0 0-.512 12.288q0 3.072.128 4.224.129 1.024 1.088 1.792t2.112.768q3.585 0 16.512.128 12.928.129 16.128.128 1.024 0 1.984-.704.96-.703 1.088-1.728 1.792-6.783 1.792-17.408-.128-1.023-1.088-1.984-.96-.96-1.984-1.216-4.224-.64-11.136-.64-14.464 0-22.912 1.408-1.023.129-2.048 1.024-1.023.897-1.152 1.92m106.88-36.48q-3.072-1.664-10.816-4.224T289.514 41q-1.536 0-1.536 1.92 0 1.792-1.792 1.792-.768 0-3.072-.64t-2.944-.64q-1.536 0-2.944 1.408-2.816 2.945-7.488 12.8a443 443 0 0 0-9.088 20.544q-4.416 10.689-5.056 11.84-1.023 2.177-3.2 2.816l-1.664.512q-2.048.768-2.048 2.944 0 1.025.512 5.12t.512 5.376q0 .897-.256 2.432-2.304 8.32-2.304 8.96 0 1.665 1.792 2.816 2.56 1.792 8.256 4.224 5.697 2.433 7.616 2.432 1.92 0 2.432-1.792.257-.511 1.664-5.376 1.408-4.863 2.176-6.912 1.024-2.304 3.456-2.56 8.32-.64 9.984-.64.897 0 1.536.64.64.64.64 1.536 0 .129-.128 1.92-.127 1.793-.256 4.224a81 81 0 0 0-.128 4.096q0 2.305 2.432 2.944 1.409.513 9.536 1.408 8.129.897 10.176.896 3.2 0 3.2-2.304 2.048-13.184 2.048-49.28 0-20.735-.896-25.088-.639-2.303-2.688-3.584m-29.44 38.528q2.433-9.216 5.504-16.64.512-1.28 1.408-1.28t.896 1.536q0 11.649-.512 16.768-.255 1.536-.832 1.92-.576.384-1.856.512c-.085 0-3.285.128-3.456.128q-1.536 0-1.536-1.152 0-.384.384-1.792m62.464 39.296q2.817-20.992 7.68-43.648 4.865-22.656 8.192-32.128l.128-.64q0-1.664-2.048-2.432-3.968-1.536-11.136-3.456t-9.344-1.92q-2.047 0-2.944 1.664-4.096 9.088-9.28 35.968t-5.312 39.936q0 2.304 2.56 3.456 2.817 1.28 10.048 3.2 7.233 1.92 9.28 1.92 2.049 0 2.176-1.92" style="fill:oklch(57.82% 0.19 16.36);fill-rule:nonzero"/>
</svg>
