<svg xmlns="http://www.w3.org/2000/svg" width="540.1" height="325" viewBox="0 0 540.1 325">
  <defs>
    <style>
      .cls-1{fill:#96e6c8}.cls-2{fill:#fffabe}.cls-5{fill:#1496be}
    </style>
  </defs>
  <path class="cls-1" d="M501.5 12.2a27.08 27.08 0 0127 26.7L510 286.5v.4a27.14 27.14 0 01-27.1 26.9L56.6 295.4l-.2.1h-.1A27.29 27.29 0 0129 268.4v-.6L10.5 57.2a27.1 27.1 0 0127.1-26.7h.1l.1.1 463.7-18.4m-.1-6L37.7 24.7A33 33 0 004.6 57.6l18.6 210.8a33 33 0 0033.1 32.9l426.5 18.5a33 33 0 0033.1-32.9l18.6-247.8a33 33 0 00-33.1-32.9z"/>
  <path class="cls-2" d="M521 291.2a33.82 33.82 0 01-33.8 33.8L52.7 306a33.82 33.82 0 01-33.8-33.8L0 52.7A33.74 33.74 0 0133.8 19L506.3 0a33.76 33.76 0 0133.8 33.8z"/>
  <path class="cls-1" d="M502 11.7a27.08 27.08 0 0127 26.7L510.4 286v.4a27.06 27.06 0 01-27 26.9L57 294.8h-.2a27 27 0 01-27.1-26.9v-.6L11 56.8a27.1 27.1 0 0127.1-26.7h.2L502 11.7m-.1-6L38.2 24.2A33 33 0 005.1 57.1l18.6 210.8a33 33 0 0033.1 32.9l426.5 18.5a33 33 0 0033.1-32.9L535 38.6a33 33 0 00-33.1-32.9z"/>
  <path class="cls-1" d="M122.4 219.9c-3.7.2-11.8.6-20.1 1.2-1.5.1-1.9.7-2.3 1.9a42.19 42.19 0 00-1.3 5.7c0 .9.5 1.7 1.9 1.7 3.1-.1 10-.2 12-.2 2.2 0 3.1 1.2 3.3 2.4a146.75 146.75 0 011 16.2 2.24 2.24 0 01-2.2 2.3c-3.8.1-11.9.5-18.3.8a2.79 2.79 0 00-2.7 2.3c-1.2 6.6-2.1 13.4-3.1 19.9a2 2 0 01-2.1 1.7c-2.6 0-15.4-3.7-17.7-4.8a3.51 3.51 0 01-2.2-3.6c0-12.6 5-41.1 9.5-57.8a15.94 15.94 0 00.2-1.7c0-1.7-.2-4.3-.2-5.6a2.84 2.84 0 012.6-2.9c5.4-1.3 18.2-2.6 29.2-2.6a64.32 64.32 0 0111.5.7 3.15 3.15 0 012.7 2.8c.6 4.2.6 13 .7 17.2a2.43 2.43 0 01-2.4 2.4zm5.6 44.6c-4.3-4.9-5.7-13.4-5.7-19.7 0-15.7 9-47.8 31.9-47.8 5.6 0 24 4.9 29.7 13.3 3.6 5.2 4.7 11.9 4.7 18.2 0 17.6-9.7 47.8-32.9 47.8-9-.1-19.9-3.1-27.7-11.8zm19-18.9c0 8 2.7 10 5 10 6.2 0 12.1-15.7 12.1-30.1 0-3.4-1-8.5-4.8-8.5-5.7 0-12.3 16.6-12.3 28.6zm91 4.1a1.93 1.93 0 00.3 1 105.7 105.7 0 009.4 10.9 2.51 2.51 0 01.7 1.7 2 2 0 01-.8 1.7c-3 2.7-14.9 10.9-18.3 10.9a4.41 4.41 0 01-3.1-1c-5.9-5-9.4-18.6-9.9-22-.1-1.2-.3-2.2-.8-2.2s-.7.9-.9 2.2c-1 7-2.2 14.2-3 21.1a2.23 2.23 0 01-2.2 1.9c-3.7 0-15.1-3.5-17.9-4.8a3.12 3.12 0 01-2.1-3.1c0-12.8 5-38.9 9.2-56a17.92 17.92 0 00.3-3.4c0-1.6-.3-3.8-.3-4.8a2.7 2.7 0 011.9-2.6 70.38 70.38 0 0123.3-4.2c14.7 0 31.2 15.4 31.2 26.8s-6.9 19.9-15.6 24a2.33 2.33 0 00-1.4 1.9zm-13.6-32.4a2.7 2.7 0 00-2.6 1.9c-.9 3.8-3 13.4-3 14.1a1.16 1.16 0 001.2 1.2c4.9 0 9.4-6.1 9.4-10.5 0-3.1-1.5-6.7-5-6.7zm97-20c2.4 0 16.4 3.8 19.1 5a2.62 2.62 0 011.6 2.3 3.54 3.54 0 01-.1.6c-3.7 10.8-10.9 42.2-14.3 68.9a1.74 1.74 0 01-1.9 1.7c-2 0-14.9-3.4-18-4.8a3.1 3.1 0 01-2.2-3.1 110.33 110.33 0 01.9-12.6v-.5c0-1-.8-1.6-2-1.6l-5.1.3c-1.2 0-1.7 1.2-2.1 2.2-1 6.2-2 12.3-2.7 18.3a2 2 0 01-2.1 1.7c-2.1 0-15.8-4-17.9-4.8a3.07 3.07 0 01-2.2-3.1 117.73 117.73 0 011.2-13.6s.1-1.3.1-2.1-1.9-9.3-2-12.9c0-1.4.3-2.4 2.6-3a3.35 3.35 0 002.4-2.7c3-14.5 6.5-28.9 9-34.6a2.92 2.92 0 012.7-1.6c2 0 15.1 3.3 19 4.9a2.62 2.62 0 011.6 2.3 3.54 3.54 0 01-.1.6 234.43 234.43 0 00-6.4 25.3l-.1.7a1.63 1.63 0 001.7 1.7c1.1 0 2.9-.1 4.2-.1a2.38 2.38 0 002.3-2.2c2.9-13.5 5.8-26.2 8.3-31.5a2.77 2.77 0 012.5-1.7zm33.5 78.6c-2.6 0-14.3-3.3-17.6-4.7a3.68 3.68 0 01-2.3-3.1c.2-15.8 8.4-58.1 13.3-69a2.92 2.92 0 012.7-1.5c2.8 0 14.1 3.1 18.6 4.9a2.82 2.82 0 011.9 2.2 3.54 3.54 0 01-.1.6c-3.8 10.8-10.8 42.2-14.4 68.9a2.12 2.12 0 01-2.1 1.7zm59.2-26.2a1.93 1.93 0 00.3 1 105.7 105.7 0 009.4 10.9 2.51 2.51 0 01.7 1.7 2 2 0 01-.8 1.7c-3 2.7-14.9 10.9-18.3 10.9a4.41 4.41 0 01-3.1-1c-5.9-5-9.4-18.6-9.9-22-.1-1.2-.3-2.2-.8-2.2s-.7.9-.9 2.2c-1 7-2.2 14.2-3 21.1a2.23 2.23 0 01-2.2 1.9c-3.7 0-15.1-3.5-17.9-4.8a3.12 3.12 0 01-2.1-3.1c0-12.8 5-38.9 9.2-56a17.92 17.92 0 00.3-3.4c0-1.6-.3-3.8-.3-4.8a2.7 2.7 0 011.9-2.6 70.38 70.38 0 0123.3-4.2c14.7 0 31.2 15.4 31.2 26.8s-6.9 19.9-15.6 24a2.33 2.33 0 00-1.4 1.9zm-13.6-32.4a2.7 2.7 0 00-2.6 1.9c-.9 3.8-3 13.4-3 14.1a1.16 1.16 0 001.2 1.2c4.9 0 9.4-6.1 9.4-10.5 0-3.1-1.5-6.7-5-6.7zm54.7 33.9a1.61 1.61 0 001.7 1.6c5.9-.6 14.9-.8 15.7-.8a3.54 3.54 0 013.5 2.2c1.7 3.7 4.7 15.8 4.7 17.3a2.15 2.15 0 01-1.9 2.1c-6.6.6-25.3 2.1-32.1 2.6a5.93 5.93 0 01-4-1.3c-3.6-3-8.6-10.1-10.9-14.7a8.86 8.86 0 01-.7-3.1c0-9.7 5.6-36.9 8.3-47.1a8.62 8.62 0 00.1-1.7c0-.7.1-5.2.1-6.2a2.33 2.33 0 012.2-2.4c6.2-1.4 21.9-2.7 33.9-2.7 3.5 0 6.6.1 9 .3a2.69 2.69 0 012.7 2.4c.6 4.2 1 12.7 1.2 16.9a2.38 2.38 0 01-2.2 2.3c-4.2.2-13.6.7-22.9 1-1.3.1-1.7.6-2.2 1.9a16.68 16.68 0 00-.5 3.1c0 1 .8 1.4 1.9 1.4 4.8-.2 9.2-.3 12-.3a3.1 3.1 0 013.1 2.3 131.36 131.36 0 012 15 2.39 2.39 0 01-2.3 2.3c-4.2.1-12.7.6-19.2 1.2a2.57 2.57 0 00-2.6 1.7l-.6 2.7z"/>
  <path class="cls-2" d="M118.7 216.2c-3.7.2-11.8.6-20.1 1.2-1.5.1-1.9.7-2.3 1.9A42.19 42.19 0 0095 225c0 .9.5 1.7 1.9 1.7 3.1-.1 10-.2 12-.2 2.2 0 3.1 1.2 3.3 2.4a146.75 146.75 0 011 16.2 2.24 2.24 0 01-2.2 2.3c-3.8.1-11.9.5-18.3.8a2.79 2.79 0 00-2.7 2.3c-1.2 6.6-2.1 13.4-3.1 19.9a2 2 0 01-2.1 1.7c-2.6 0-15.4-3.7-17.7-4.8a3.51 3.51 0 01-2.2-3.6c0-12.6 5-41.1 9.5-57.8a15.94 15.94 0 00.2-1.7c0-1.7-.2-4.3-.2-5.6a2.84 2.84 0 012.6-2.9c5.4-1.3 18.2-2.6 29.2-2.6a64.32 64.32 0 0111.5.7 3.15 3.15 0 012.7 2.8c.6 4.2.6 13 .7 17.2a2.43 2.43 0 01-2.4 2.4zm5.6 44.6c-4.3-4.9-5.7-13.4-5.7-19.7 0-15.7 9-47.8 31.9-47.8 5.6 0 24 4.9 29.7 13.3 3.6 5.2 4.7 11.9 4.7 18.2 0 17.6-9.7 47.8-32.9 47.8-9-.1-19.9-3.1-27.7-11.8zm19-18.9c0 8 2.7 10 5 10 6.2 0 12.1-15.7 12.1-30.1 0-3.4-1-8.5-4.8-8.5-5.7 0-12.3 16.6-12.3 28.6zm91 4.1a1.93 1.93 0 00.3 1 105.7 105.7 0 009.4 10.9 2.51 2.51 0 01.7 1.7 2 2 0 01-.8 1.7c-3 2.7-14.9 10.9-18.3 10.9a4.41 4.41 0 01-3.1-1c-5.9-5-9.4-18.6-9.9-22-.1-1.2-.3-2.2-.8-2.2s-.7.9-.9 2.2c-1 7-2.2 14.2-3 21.1a2.23 2.23 0 01-2.2 1.9c-3.7 0-15.1-3.5-17.9-4.8a3.12 3.12 0 01-2.1-3.1c0-12.8 5-38.9 9.2-56a17.92 17.92 0 00.3-3.4c0-1.6-.3-3.8-.3-4.8a2.7 2.7 0 011.9-2.6 70.38 70.38 0 0123.3-4.2c14.7 0 31.2 15.4 31.2 26.8s-6.9 19.9-15.6 24a2.33 2.33 0 00-1.4 1.9zm-13.6-32.4a2.7 2.7 0 00-2.6 1.9c-.9 3.8-3 13.4-3 14.1a1.16 1.16 0 001.2 1.2c4.9 0 9.4-6.1 9.4-10.5 0-3.1-1.5-6.7-5-6.7zm97-20c2.4 0 16.4 3.8 19.1 5a2.62 2.62 0 011.6 2.3 3.54 3.54 0 01-.1.6c-3.7 10.8-10.9 42.2-14.3 68.9a1.74 1.74 0 01-1.9 1.7c-2 0-14.9-3.4-18-4.8a3.1 3.1 0 01-2.2-3.1 110.33 110.33 0 01.9-12.6v-.5c0-1-.8-1.6-2-1.6l-5.1.3c-1.2 0-1.7 1.2-2.1 2.2-1 6.2-2 12.3-2.7 18.3a2 2 0 01-2.1 1.7c-2.1 0-15.8-4-17.9-4.8a3.07 3.07 0 01-2.2-3.1 117.73 117.73 0 011.2-13.6s.1-1.3.1-2.1-1.9-9.3-2-12.9c0-1.4.3-2.4 2.6-3a3.35 3.35 0 002.4-2.7c3-14.5 6.5-28.9 9-34.6a2.92 2.92 0 012.7-1.6c2 0 15.1 3.3 19 4.9a2.62 2.62 0 011.6 2.3 3.54 3.54 0 01-.1.6 234.43 234.43 0 00-6.4 25.3l-.1.7a1.63 1.63 0 001.7 1.7c1.2 0 2.9-.1 4.2-.1a2.38 2.38 0 002.3-2.2c2.9-13.5 5.8-26.2 8.3-31.5a2.77 2.77 0 012.5-1.7zm33.5 78.6c-2.6 0-14.3-3.3-17.6-4.7a3.68 3.68 0 01-2.3-3.1c.2-15.8 8.4-58.1 13.3-69a2.92 2.92 0 012.7-1.5c2.8 0 14.1 3.1 18.6 4.9a2.82 2.82 0 011.9 2.2 3.54 3.54 0 01-.1.6c-3.8 10.8-10.8 42.2-14.4 68.9a2.12 2.12 0 01-2.1 1.7zm59.2-26.2a1.93 1.93 0 00.3 1 105.7 105.7 0 009.4 10.9 2.51 2.51 0 01.7 1.7 2 2 0 01-.8 1.7c-3 2.7-14.9 10.9-18.3 10.9a4.41 4.41 0 01-3.1-1c-5.9-5-9.4-18.6-9.9-22-.1-1.2-.3-2.2-.8-2.2s-.7.9-.9 2.2c-1 7-2.2 14.2-3 21.1a2.23 2.23 0 01-2.2 1.9c-3.7 0-15.1-3.5-17.9-4.8a3.12 3.12 0 01-2.1-3.1c0-12.8 5-38.9 9.2-56a17.92 17.92 0 00.3-3.4c0-1.6-.3-3.8-.3-4.8a2.7 2.7 0 011.9-2.6 70.38 70.38 0 0123.3-4.2c14.7 0 31.2 15.4 31.2 26.8s-6.9 19.9-15.6 24a2.33 2.33 0 00-1.4 1.9zm-13.6-32.4a2.7 2.7 0 00-2.6 1.9c-.9 3.8-3 13.4-3 14.1a1.16 1.16 0 001.2 1.2c4.9 0 9.4-6.1 9.4-10.5 0-3.1-1.5-6.7-5-6.7zm54.7 33.9a1.61 1.61 0 001.7 1.6c5.9-.6 14.9-.8 15.7-.8a3.54 3.54 0 013.5 2.2c1.7 3.7 4.7 15.8 4.7 17.3a2.15 2.15 0 01-1.9 2.1c-6.6.6-25.3 2.1-32.1 2.6a5.93 5.93 0 01-4-1.3c-3.6-3-8.6-10.1-10.9-14.7a8.86 8.86 0 01-.7-3.1c0-9.7 5.6-36.9 8.3-47.1a8.62 8.62 0 00.1-1.7c0-.7.1-5.2.1-6.2a2.33 2.33 0 012.2-2.4c6.2-1.4 21.9-2.7 33.9-2.7 3.5 0 6.6.1 9 .3a2.69 2.69 0 012.7 2.4c.6 4.2 1 12.7 1.2 16.9a2.38 2.38 0 01-2.2 2.3c-4.2.2-13.6.7-22.9 1-1.3.1-1.7.6-2.2 1.9a16.68 16.68 0 00-.5 3.1c0 1 .8 1.4 1.9 1.4 4.8-.2 9.2-.3 12-.3a3.1 3.1 0 013.1 2.3 131.36 131.36 0 012 15 2.39 2.39 0 01-2.3 2.3c-4.2.1-12.7.6-19.2 1.2a2.57 2.57 0 00-2.6 1.7l-.6 2.7z"/>
  <path d="M116.8 214.3c-3.7.2-11.8.6-20.1 1.2-1.5.1-1.9.7-2.3 1.9a42.19 42.19 0 00-1.3 5.7c0 .9.5 1.7 1.9 1.7 3.1-.1 10-.2 12-.2 2.2 0 3.1 1.2 3.3 2.4a146.75 146.75 0 011 16.2 2.24 2.24 0 01-2.2 2.3c-3.8.1-11.9.5-18.3.8a2.79 2.79 0 00-2.7 2.3c-1.2 6.6-2.1 13.4-3.1 19.9a2 2 0 01-2.1 1.7c-2.6 0-15.4-3.7-17.7-4.8a3.51 3.51 0 01-2.2-3.6c0-12.6 5-41.1 9.5-57.8a15.94 15.94 0 00.2-1.7c0-1.7-.2-4.3-.2-5.6a2.84 2.84 0 012.6-2.9c5.4-1.3 18.2-2.6 29.2-2.6a64.32 64.32 0 0111.5.7 3.15 3.15 0 012.7 2.8c.6 4.2.6 13 .7 17.2a2.31 2.31 0 01-2.4 2.4zm5.6 44.6c-4.3-4.9-5.7-13.4-5.7-19.7 0-15.7 9-47.8 31.9-47.8 5.6 0 24 4.9 29.7 13.3 3.6 5.2 4.7 11.9 4.7 18.2 0 17.6-9.7 47.8-32.9 47.8-9 0-19.9-3.1-27.7-11.8zm19.1-18.8c0 8 2.7 10 5 10 6.2 0 12.1-15.7 12.1-30.1 0-3.4-1-8.5-4.8-8.5-5.8-.1-12.3 16.6-12.3 28.6zm91 4a1.93 1.93 0 00.3 1 105.7 105.7 0 009.4 10.9 2.51 2.51 0 01.7 1.7 2 2 0 01-.8 1.7c-3 2.7-14.9 10.9-18.3 10.9a4.41 4.41 0 01-3.1-1c-5.9-5-9.4-18.6-9.9-22-.1-1.2-.3-2.2-.8-2.2s-.7.9-.9 2.2c-1 7-2.2 14.2-3 21.1a2.23 2.23 0 01-2.2 1.9c-3.7 0-15.1-3.5-17.9-4.8a3.12 3.12 0 01-2.1-3.1c0-12.8 5-38.9 9.2-56a17.92 17.92 0 00.3-3.4c0-1.6-.3-3.8-.3-4.8a2.7 2.7 0 011.9-2.6 70.38 70.38 0 0123.3-4.2c14.7 0 31.2 15.4 31.2 26.8s-6.9 19.9-15.6 24a2.33 2.33 0 00-1.4 1.9zm-13.6-32.3a2.7 2.7 0 00-2.6 1.9c-.9 3.8-3 13.4-3 14.1a1.16 1.16 0 001.2 1.2c4.9 0 9.4-6.1 9.4-10.5 0-3.1-1.5-6.7-5-6.7zm96.9-20c2.4 0 16.4 3.8 19.1 5a2.62 2.62 0 011.6 2.3 3.54 3.54 0 01-.1.6c-3.7 10.8-10.9 42.2-14.3 68.9a1.74 1.74 0 01-1.9 1.7c-2 0-14.9-3.4-18-4.8a3.1 3.1 0 01-2.2-3.1 110.33 110.33 0 01.9-12.6v-.5c0-1-.8-1.6-2-1.6l-5.1.3c-1.2 0-1.7 1.2-2.1 2.2-1 6.2-2 12.3-2.7 18.3a2 2 0 01-2.1 1.7c-2.1 0-15.8-4-17.9-4.8a3.07 3.07 0 01-2.2-3.1 117.73 117.73 0 011.2-13.6s.1-1.3.1-2.1-1.9-9.3-2-12.9c0-1.4.3-2.4 2.6-3a3.35 3.35 0 002.4-2.7c3-14.5 6.5-28.9 9-34.6a2.92 2.92 0 012.7-1.6c2 0 15.1 3.3 19 4.9a2.62 2.62 0 011.6 2.3 3.54 3.54 0 01-.1.6 234.43 234.43 0 00-6.4 25.3l-.1.7a1.63 1.63 0 001.7 1.7c1.2 0 2.9-.1 4.2-.1a2.38 2.38 0 002.3-2.2c2.9-13.5 5.8-26.2 8.3-31.5a2.77 2.77 0 012.5-1.7zm33.5 78.5c-2.6 0-14.3-3.3-17.6-4.7a3.68 3.68 0 01-2.3-3.1c.2-15.8 8.4-58.1 13.3-69a2.92 2.92 0 012.7-1.5c2.8 0 14.1 3.1 18.6 4.9a2.82 2.82 0 011.9 2.2 3.54 3.54 0 01-.1.6c-3.8 10.8-10.8 42.2-14.4 68.9a2 2 0 01-2.1 1.7zm59.2-26.2a1.93 1.93 0 00.3 1 105.7 105.7 0 009.4 10.9 2.51 2.51 0 01.7 1.7 2 2 0 01-.8 1.7c-3 2.7-14.9 10.9-18.3 10.9a4.41 4.41 0 01-3.1-1c-5.9-5-9.4-18.6-9.9-22-.1-1.2-.3-2.2-.8-2.2s-.7.9-.9 2.2c-1 7-2.2 14.2-3 21.1a2.23 2.23 0 01-2.2 1.9c-3.7 0-15.1-3.5-17.9-4.8a3.12 3.12 0 01-2.1-3.1c0-12.8 5-38.9 9.2-56a17.92 17.92 0 00.3-3.4c0-1.6-.3-3.8-.3-4.8a2.7 2.7 0 011.9-2.6 70.38 70.38 0 0123.3-4.2c14.7 0 31.2 15.4 31.2 26.8s-6.9 19.9-15.6 24a2.33 2.33 0 00-1.4 1.9zm-13.6-32.3a2.7 2.7 0 00-2.6 1.9c-.9 3.8-3 13.4-3 14.1a1.16 1.16 0 001.2 1.2c4.9 0 9.4-6.1 9.4-10.5 0-3.1-1.5-6.7-5-6.7zm54.7 33.9a1.61 1.61 0 001.7 1.6c5.9-.6 14.9-.8 15.7-.8a3.54 3.54 0 013.5 2.2c1.7 3.7 4.7 15.8 4.7 17.3a2.15 2.15 0 01-1.9 2.1c-6.6.6-25.3 2.1-32.1 2.6a5.93 5.93 0 01-4-1.3c-3.6-3-8.6-10.1-10.9-14.7a8.86 8.86 0 01-.7-3.1c0-9.7 5.6-36.9 8.3-47.1a8.62 8.62 0 00.1-1.7c0-.7.1-5.2.1-6.2a2.33 2.33 0 012.2-2.4c6.2-1.4 21.9-2.7 33.9-2.7 3.5 0 6.6.1 9 .3a2.69 2.69 0 012.7 2.4c.6 4.2 1 12.7 1.2 16.9a2.38 2.38 0 01-2.2 2.3c-4.2.2-13.6.7-22.9 1-1.3.1-1.7.6-2.2 1.9a16.68 16.68 0 00-.5 3.1c0 1 .8 1.4 1.9 1.4 4.8-.2 9.2-.3 12-.3a3.1 3.1 0 013.1 2.3 131.36 131.36 0 012 15 2.39 2.39 0 01-2.3 2.3c-4.2.1-12.7.6-19.2 1.2a2.57 2.57 0 00-2.6 1.7l-.6 2.7z" fill="#ff647d"/>
  <path d="M167.5 166.9a21.25 21.25 0 01-4-1 1.23 1.23 0 01-.7-1.1c.1-5.9 3.1-20.8 4.7-24.6a1.05 1.05 0 01.9-.5 20.94 20.94 0 014.3 1.1c.4.1.5.4.5.8v.2a135.91 135.91 0 00-4.9 24.4.85.85 0 01-.8.7zm13.6-27a21.59 21.59 0 01-2.9 7.4 1.05 1.05 0 01-.9.5 6.26 6.26 0 01-2.2-.7 1 1 0 01-.5-.9v-.2a37.31 37.31 0 001.8-7.5.68.68 0 01.7-.7 13.13 13.13 0 013.2 1 1.21 1.21 0 01.8 1.1zm3.8 27a21.25 21.25 0 01-4-1 1.08 1.08 0 01-.7-1.1c.2-5.9 3.3-20.7 5-24.5a1.15 1.15 0 011.1-.6 37.91 37.91 0 016.6 1.6 1.17 1.17 0 01.5 1.1v11.4c0 .2 0 .3.1.3s.2-.3.2-.3c1.7-4.3 3.6-9.7 5.6-13.6a1.17 1.17 0 011-.6 33 33 0 017.2 1.8c.4.1.5.4.5.8v.2a159.56 159.56 0 00-4.8 23.8.66.66 0 01-.7.6 22.2 22.2 0 01-4.1-1 1.08 1.08 0 01-.7-1.1c0-4 2.5-14.8 2.5-15.3 0-.1 0-.2-.1-.2l-.2.2c-1.6 3.6-3 8.1-4.8 13a1 1 0 01-.9.6 18.78 18.78 0 01-4.1-1.3 1.17 1.17 0 01-.7-1.1c-.4-3.2-.3-8-.4-11.4a.44.44 0 00-.1-.3l-.2.2A136.31 136.31 0 00186 166c-.5.6-.8.9-1.1.9zm28.9-7.1c0-.5-.7-2.2-.7-2.9a.76.76 0 01.7-.8c.4-.1 1-.2 1-.2.6-.1.7-.3 1-.8 2.2-4.3 5.7-12.5 7.5-14.6a.91.91 0 01.8-.4c.4 0 1.1.3 1.4.3s.7-.2.7-.5a.47.47 0 01.5-.5 21.61 21.61 0 014.1 1.3 1.55 1.55 0 01.8 1.1 131.85 131.85 0 01.7 15.3c0 3.9-.1 7.4-.3 9.2 0 .3-.3.6-.8.6a21.42 21.42 0 01-4.3-.7 1 1 0 01-.7-1.1c0-.9.1-3.9.1-4.6 0-.4-.2-.6-.7-.6-1.8 0-4.8.2-5.3.2s-.7.2-.9.7c-.8 1.7-1.5 3.9-2.1 5.3-.2.3-.4.5-.7.5a11 11 0 01-3.7-1.6.89.89 0 01-.5-.8v-.3l1.3-3.7a.6.6 0 00.1-.4zm8-5.1q0 .3.6.3h3.2c.4 0 .7-.2.8-.8v-2.8c0-2.2-.1-4.4-.1-5.7 0-.2-.1-.4-.2-.4a.22.22 0 00-.2.2c-1 2.2-2.4 5.4-4 8.8 0 .2-.1.3-.1.4zm14.2-3.8a81.12 81.12 0 01.5-10.4.88.88 0 01.9-.7 20.42 20.42 0 014.3.8c.4.2.7.4.7.9v.9c-.2 2.6-.4 5.7-.4 9.8 0 2.3 0 4.8.2 7.7 0 .2 0 .3.1.3s.1-.1.2-.3c2.2-5.8 6.3-17.1 7.5-19.6a.75.75 0 01.8-.5 15.77 15.77 0 014.4 2 .91.91 0 01.3.7.6.6 0 01-.1.4c-1.8 4.3-7.9 19.9-10.2 23.4a1.43 1.43 0 01-1.1.5c-1.8 0-5.3-1.5-6.8-2.6-.4-.2-.5-.7-.6-1.2a87.71 87.71 0 01-.7-12.1zm16.7 8.9c0-.5-.7-2.2-.7-2.9a.76.76 0 01.7-.8c.4-.1 1-.2 1-.2.6-.1.7-.3 1-.8 2.2-4.3 5.7-12.5 7.5-14.6a.91.91 0 01.8-.4c.4 0 1.1.3 1.4.3s.7-.2.7-.5a.47.47 0 01.5-.5 21.61 21.61 0 014.1 1.3 1.55 1.55 0 01.8 1.1 131.85 131.85 0 01.7 15.3c0 3.9-.1 7.4-.3 9.2 0 .3-.3.6-.8.6a21.42 21.42 0 01-4.3-.7 1 1 0 01-.7-1.1c0-.9.1-3.9.1-4.6 0-.4-.2-.6-.7-.6-1.8 0-4.8.2-5.3.2s-.7.2-.9.7c-.8 1.7-1.5 3.9-2.1 5.3-.2.3-.4.5-.7.5a11 11 0 01-3.7-1.6.89.89 0 01-.5-.8v-.3l1.3-3.7a.6.6 0 00.1-.4zm8-5.1q0 .3.6.3h3.2c.4 0 .7-.2.8-.8v-2.8c0-2.2-.1-4.4-.1-5.7 0-.2-.1-.4-.2-.4a.22.22 0 00-.2.2c-1 2.2-2.4 5.4-4 8.8 0 .2-.1.3-.1.4zm17.9 12.2a21.25 21.25 0 01-4-1 1.23 1.23 0 01-.7-1.1c.1-5.9 3.1-20.8 4.7-24.6a1.05 1.05 0 01.9-.5 20.94 20.94 0 014.3 1.1c.4.1.5.4.5.8v.2a135.91 135.91 0 00-4.9 24.4 1 1 0 01-.8.7zm18.9-5.6c.2.9.9 3.6.9 4s-.3.6-.7.7c-2.2.2-9.8.9-10.5.9a1.5 1.5 0 01-1.1-.4 21.15 21.15 0 01-2.5-3.6 1.8 1.8 0 01-.2-1v-.6c.6-6.3 2.8-16.9 4.4-21.1a.94.94 0 01.9-.5 23.46 23.46 0 014.4 1.1.79.79 0 01.5.8v.3a158.29 158.29 0 00-4.2 18.8.47.47 0 00.5.5c.3 0 4.9-.5 6.4-.5a1 1 0 011.2.6zm4.3-1.5c0-.5-.7-2.2-.7-2.9a.76.76 0 01.7-.8c.4-.1 1-.2 1-.2.6-.1.7-.3 1-.8 2.2-4.3 5.7-12.5 7.5-14.6a.91.91 0 01.8-.4c.4 0 1.1.3 1.4.3s.7-.2.7-.5a.47.47 0 01.5-.5 21.61 21.61 0 014.1 1.3 1.55 1.55 0 01.8 1.1 131.85 131.85 0 01.7 15.3c0 3.9-.1 7.4-.3 9.2 0 .3-.3.6-.8.6a21.42 21.42 0 01-4.3-.7 1 1 0 01-.7-1.1c0-.9.1-3.9.1-4.6 0-.4-.2-.6-.7-.6-1.8 0-4.8.2-5.3.2s-.7.2-.9.7c-.8 1.7-1.5 3.9-2.1 5.3-.2.3-.4.5-.7.5a11 11 0 01-3.7-1.6.89.89 0 01-.5-.8v-.3l1.3-3.7a.6.6 0 00.1-.4zm8-5.1q0 .3.6.3h3.2c.4 0 .7-.2.8-.8v-2.8c0-2.2-.1-4.4-.1-5.7 0-.2-.1-.4-.2-.4a.22.22 0 00-.2.2c-1 2.2-2.4 5.4-4 8.8 0 .2-.1.3-.1.4zm33.8-7.4c0 2.9-2 4.9-4.6 6.2-.2.1-.3.2-.3.4a.4.4 0 00.2.4c1.6 1.3 3 3.5 3 5.2 0 3.6-5.6 7.5-11.3 7.5a13.22 13.22 0 01-2.9-.2c-1.9-.7-3.8-2.8-4.8-4.2a1.93 1.93 0 01-.3-1c0-2.3 2-12.6 3.1-16.7v-.6c0-.6-.3-1.9-.3-2.2a.75.75 0 01.5-.7 21.81 21.81 0 017.9-1.8c5.4-.2 9.8 4.7 9.8 7.7zm-15.1 13.6c0 .5.5.7 1 .7 2.6 0 6.4-1.4 6.4-4 0-2.1-2.5-2.3-3.5-2.3h-2.2a.76.76 0 00-.8.7 41.25 41.25 0 00-.9 4.9zm1.9-10.2c0 .4.2.5.6.5 2.5 0 6.9-1.5 6.9-4.4 0-2.1-2.3-2.8-4-2.8a5.7 5.7 0 00-1.3.1 1.09 1.09 0 00-.8.8 56.56 56.56 0 00-1.4 5.8zm27.7 10.6c.2.9.9 3.6.9 4s-.3.6-.7.7c-2.2.2-9.8.9-10.5.9a1.5 1.5 0 01-1.1-.4 21.15 21.15 0 01-2.5-3.6 1.8 1.8 0 01-.2-1v-.6c.6-6.3 2.8-16.9 4.4-21.1a.94.94 0 01.9-.5 23.46 23.46 0 014.4 1.1.79.79 0 01.5.8v.3a158.29 158.29 0 00-4.2 18.8.47.47 0 00.5.5c.3 0 4.9-.5 6.4-.5a1 1 0 011.2.6zm8.6-.5c0 .3.2.4.5.4s5.7-.4 7.5-.4a1.44 1.44 0 011.1.7 23.63 23.63 0 011.1 3.8.75.75 0 01-.7.7c-2.4.2-11 .9-11.6.9a1.82 1.82 0 01-1.1-.4 14 14 0 01-2.4-3.3 1.64 1.64 0 01-.2-1c0-3.5 2.3-14.1 3.3-18a2 2 0 00.1-.8V141a.86.86 0 01.7-.9 81.9 81.9 0 0111.4-.8 20.12 20.12 0 012.6.1 1 1 0 011 .8 27.34 27.34 0 01.3 3.7.75.75 0 01-.7.7c-1.6.1-5.5.3-8.9.4a.85.85 0 00-.8.7 34.73 34.73 0 00-1 4.4c0 .3.2.5.6.5.2 0 4.4-.3 5.9-.3a1 1 0 011 .8 22.1 22.1 0 01.4 3.5.68.68 0 01-.7.7l-7.7.4a1 1 0 00-.9.7 43 43 0 00-.8 4.4z" fill="#494b4d"/>
  <path class="cls-1" d="M110.3 136.3c-7.2 14-17.2 26.2-28 27.1-6.2.5-14.4-4.9-14.7-9.1-.7-8.1 17.1-13.1 32.8-18.9 2.4-4.6 3.9-8.1 3.9-8.1a18.45 18.45 0 01-6.9 1.7c-11.1 1-23.2-7.9-24.1-18.2-1.8-20.2 22.3-52.6 39.8-54.2 7.9-.7 16.3 6.5 16.9 13.1.7 7.5-8 22-11.8 22.3-1.5.1-4.9-2-5.1-4.5-.1-1.6 1.8-5.4 3-7.8 2-3.7 2.6-5.4 4.5-5.5 1.2-.1 2.8 1.4 2.8 1.4a17 17 0 001-6.6 5.71 5.71 0 00-6.1-5.3c-16.1 1.4-33.1 31.8-31.6 48.7.4 4.3 3.6 11.5 9.4 10.9 5.2-.5 10.6-6.3 13.3-11.3 3.6-6.4 5.3-10.4 6.6-10.5s7.6 3.6 7.8 5.4-2.8 5.6-10 22a66.79 66.79 0 0018.7-19.5c1.4-2.4 1.8-3.2 2.3-3.2.8-.1 2.5 2.1 2.6 3.5s-.2 2.6-1.9 5.3c-3 4.7-13 15-25.2 21.3zm-14 6.1c-11.3 4.7-21.5 9.2-21.2 12.7.2 2 2 3.1 4.3 2.9 6.1-.6 12.2-8.2 16.9-15.6z"/>
  <path class="cls-1" d="M132 113.4c-.9-9.8 9.5-25.8 16.3-26.4 4.5-.4 11.9 3.1 12.3 7.2.3 3.1-2 9.6-6.6 14.8-3.6 4.2-11.7 5.1-11.7 5.1a13.89 13.89 0 000 2.2 6.28 6.28 0 006.8 5.9c6.4-.6 13.1-9.8 16.5-15.5 1.4-2.4 1.8-3.2 2.3-3.2.8-.1 2.5 2.1 2.6 3.5s-.2 2.6-1.9 5.3c-3.2 5-10.2 14.6-20.1 15.4-6.9.5-15.7-4.6-16.5-14.3zm22.3-17.8c0-.6-.6-.9-1.3-.8-2.2.2-10.3 12.4-10.1 14.8 3.6-.3 11.6-11 11.4-14z"/>
  <path class="cls-1" d="M164.9 113.1c-.6-6.7 3.7-18.8 7.7-29-3.2-.4-5.5-3-5.6-4.2 0-.6.5-1.4 1.1-1.4.8-.1 2.1 1.1 6.4.9 2.7-6.5 4.9-11.4 4.8-12.2s.1-1.4.9-1.5c2.4-.2 6.8 2.9 7.1 6.6.2 1.9-.3 3-1.6 5.7 3.3-.5 6.1-.9 6.8-1 1.5-.1 1.9.1 2 1.1s-2.2 5.8-5.7 6.1c-1.4.1-3.6.2-6 .2-1 2.5-2.3 5.7-3.7 9.8-4.7 13.2-4.8 17.7-4.6 19.7.4 4.8 2.5 6.4 2.6 7.9a3.23 3.23 0 01-2.3 2.8c-3.3.3-9.2-4.1-9.9-11.5zm67.4-12.3c1.4-2.4 1.8-3.2 2.3-3.2.8-.1 2.5 2.1 2.6 3.5s-.2 2.6-1.9 5.3c-3.3 5-9 14.1-15.3 14.7-5.3.5-11.6-3.7-12.2-10.9-.7-7.8 3.7-16.6 6.2-25 1-3.2 1.7-5.2 3-5.3 2.4-.2 8.2 1.5 8.4 3.4s-.8 3.4-2.4 7.4c-5.6 14.7-6.5 17.8-6.2 21.8.2 2.4 1.5 3.6 3 3.4 2.9-.2 9.1-9.4 12.5-15.1zM233 64c.3 2.9-2.4 8.4-5.9 8.7s-5.8-1.8-6-4.9 3.1-7.9 5.7-8.1c3-.2 6 1.4 6.2 4.3z"/>
  <path class="cls-1" d="M256.1 109.3c-.6-7.3 9.5-22.9 9.3-25.5a1.28 1.28 0 00-1.4-1.1c-1.1.1-5 3.9-9 9.8-2.5 3.6-5.1 8.4-7.7 12.7-6.8 11.3-5.7 14.2-7.4 14.3-2.8.2-9.5-1.9-9.9-6.4-.7-8.1 8.4-30.8 8.7-34 0-.7.4-.8 1.5-.9 3.4-.3 8 1.7 8.3 4.3s-7.5 18.7-7.1 22.5c0 0 5.3-8.7 10.7-16.1s10.2-12.2 13.4-12.5c4.9-.4 9.9 2.5 10.2 5.6.4 4.3-9.6 21.3-9 28 .3 3 1.5 3.9 1.6 5a2.46 2.46 0 01-2.1 2.4c-4 .2-9.6-2.4-10.1-8.1zm40.5-7.8c-.5-6.1 3-16.9 6.7-26.4-2.5-.8-4.2-3-4.3-3.9 0-.6.5-1.4 1.1-1.4s1.8.9 5 .9c3.2-7.9 6.1-14.2 6-15s.1-1.4.9-1.5c2.4-.2 6.8 2.9 7.1 6.6.2 2.4-.6 3.4-3 8.8 4-.5 7.7-1.1 8.5-1.2 1.5-.1 1.9.1 2 1.1s-2.2 5.8-5.7 6.1c-1.6.1-4.4.2-7.3.2l-2.6 7.1c-4.7 13.2-4.8 17.7-4.6 19.7.3 3 1.7 5.4 4.9 5.1 4-.3 9.8-9 13.2-14.7 1.4-2.4 1.8-3.2 2.3-3.2.8-.1 2.5 2.1 2.6 3.5s-.2 2.6-1.9 5.3c-3.2 5-8.8 14.1-15.1 14.6-6.3.2-15.2-4.2-15.8-11.7z"/>
  <path class="cls-1" d="M352.1 73.5c.7-.1 4.7.6 5.3 7 .4 4.8-1.8 13.1-5.8 20 6.1-1.4 9.4-6 12.5-11.2 1.4-2.4 1.8-3.2 2.3-3.2.8-.1 2.5 2.1 2.6 3.5s-.3 2.4-2 5.3a24.6 24.6 0 01-19 12l-1.2.1c-2.8 2.7-6 4.7-9.5 5-6.4.6-13.1-5.1-13.7-12.4-.8-9.6 9.5-29.8 17.6-30.5 2.8-.3 9.4 2.3 10.9 4.4zM334 102.2c.2 2.7 1.8 3.7 3.2 3.6a5.18 5.18 0 002.9-1.4 4.18 4.18 0 01-.4-1c-.1-1.7 1.9-4.2 3.4-4.4a2.34 2.34 0 011.1.2c3.6-6.3 6.3-15.5 6-19.4-.2-2.1-1.2-3.2-2.8-3.1-5.5.5-14.1 16.9-13.4 25.5z"/>
  <path class="cls-1" d="M388.1 95.7c-2.3 4.4-6.6 10.8-11.8 11.3s-12.6-2.3-13.3-10.3c-.8-9.7 7-24.7 8.6-29.5.4-1.4 1.1-2 1.6-2 1.4-.1 8.2 2.5 8.4 4.7s-.2 2.9-3.5 11.4c-3.3 8.7-5 13.4-4.6 18.2.1 1.5 1.1 2.5 2 2.4 1.7-.1 6.4-4.5 11.7-13.7a84.56 84.56 0 008.5-21.1c.2-1.2.8-1.9 1.7-2 1.9-.2 7.6 2.8 7.7 4.6s-.3 4.9-3.8 14.5-3.8 11.1-3.6 12.8a2.24 2.24 0 002.7 2.1c3.8-.3 9.7-8.4 13.1-14.1 1.4-2.4 1.8-3.2 2.3-3.2.8-.1 2.5 2.1 2.6 3.5s-.2 2.6-1.9 5.3c-3.2 5-9.4 13.7-15.7 14.3-6 .4-12.3-4.5-12.7-9.2z"/>
  <path class="cls-1" d="M413.3 87.9c-.9-10.2 10.5-25.8 19-26.5 5.6-.5 10.4 3.4 10.7 7 .4 4.2-2.3 12.3-4.7 12.5s-4.7-2-4.8-2.6a2.34 2.34 0 01.7-1.3c1.5-1.8 4-5.7 3.7-8.3a1.14 1.14 0 00-1.3-1.1c-5.5.5-13.4 14-12.7 22 .4 4.8 4 8 8.1 7.6 5.6-.5 11.5-9.5 14.9-15.2 1.4-2.4 1.8-3.2 2.3-3.2.8-.1 2.5 2.1 2.6 3.5s-.2 2.6-1.9 5.3c-3.2 5-9.2 14.2-17.9 14.9-8.2.7-17.7-4.1-18.7-14.6z"/>
  <path class="cls-1" d="M469.5 89.1c-.6-6.7 8.3-20.3 8-23.2-.1-1-.7-1.5-1.4-1.4-1.9.2-11.7 13-17.3 22.7s-5.5 14.1-7.4 14.2-7.1-2.6-7.3-5.2.2-6.1 4-19.4c4.6-16.1 12.4-34.1 12.2-36-.1-.7 0-1.1.9-1.2s7.4 2.3 7.7 5.2-2.3 6.7-6.1 16.8c-4 10.5-7 20.8-7 20.8s14.6-23.7 22.4-24.4c5.7-.5 9.6 3.7 9.9 7.3.5 5.9-9.3 21.2-8.9 25.8.1 1.7 1.8 2.4 1.9 3.2a3.5 3.5 0 01-2.7 3.2c-2.9.3-8.3-1.7-8.9-8.4z"/>
  <path class="cls-2" d="M108.3 134.3c-7.2 14-17.2 26.2-28 27.1-6.2.5-14.4-4.9-14.7-9.1-.7-8.1 17.1-13.1 32.8-18.9 2.4-4.6 3.9-8.1 3.9-8.1a18.45 18.45 0 01-6.9 1.7c-11.1 1-23.2-7.9-24.1-18.2-1.8-20.2 22.3-52.6 39.8-54.2 7.9-.7 16.3 6.5 16.9 13.1.7 7.5-8 22-11.8 22.3-1.5.1-4.9-2-5.1-4.5-.1-1.6 1.8-5.4 3-7.8 2-3.7 2.6-5.4 4.5-5.5 1.2-.1 2.8 1.4 2.8 1.4a17 17 0 001-6.6 5.71 5.71 0 00-6.1-5.3c-16.1 1.4-33.1 31.8-31.6 48.7.4 4.3 3.6 11.5 9.4 10.9 5.2-.5 10.6-6.3 13.3-11.3 3.6-6.4 5.3-10.4 6.6-10.5s7.6 3.6 7.8 5.4-2.8 5.6-10 22a66.79 66.79 0 0018.7-19.5c1.4-2.4 1.8-3.2 2.3-3.2.8-.1 2.5 2.1 2.6 3.5s-.2 2.6-1.9 5.3c-3 4.7-13 15-25.2 21.3zm-14 6.1c-11.3 4.7-21.5 9.2-21.2 12.7.2 2 2 3.1 4.3 2.8 6.1-.5 12.2-8.1 16.9-15.5z"/>
  <path class="cls-2" d="M130 111.4c-.9-9.8 9.5-25.8 16.3-26.4 4.5-.4 11.9 3.1 12.3 7.2.3 3.1-2 9.6-6.6 14.8-3.6 4.2-11.7 5.1-11.7 5.1a13.89 13.89 0 000 2.2 6.35 6.35 0 006.8 5.9c6.4-.6 13.1-9.8 16.5-15.5 1.4-2.4 1.8-3.2 2.3-3.2.8-.1 2.5 2.1 2.6 3.5s-.2 2.6-1.9 5.3c-3.2 5-10.2 14.6-20.1 15.4-6.9.5-15.7-4.6-16.5-14.3zm22.3-17.8c0-.6-.6-.9-1.3-.8-2.2.2-10.3 12.4-10.1 14.8 3.6-.3 11.6-11 11.4-14z"/>
  <path class="cls-2" d="M162.9 111.1c-.6-6.7 3.7-18.8 7.7-29-3.2-.4-5.5-3-5.6-4.2 0-.6.5-1.4 1.1-1.4.8-.1 2.1 1.1 6.4.9 2.7-6.5 4.9-11.4 4.8-12.2s.1-1.4.9-1.5c2.4-.2 6.8 2.9 7.1 6.6.2 1.9-.3 3-1.6 5.7 3.3-.5 6.1-.9 6.8-1 1.5-.1 1.9.1 2 1.1s-2.2 5.8-5.7 6.1c-1.4.1-3.6.2-6 .2-1 2.5-2.3 5.7-3.7 9.8-4.7 13.2-4.8 17.7-4.6 19.7.4 4.8 2.5 6.4 2.6 7.9a3.23 3.23 0 01-2.3 2.8c-3.3.3-9.2-4.1-9.9-11.5zm67.4-12.3c1.4-2.4 1.8-3.2 2.3-3.2.8-.1 2.5 2.1 2.6 3.5s-.2 2.6-1.9 5.3c-3.2 5-8.9 14.2-15.2 14.7-5.3.5-11.6-3.7-12.2-10.9-.7-7.8 3.7-16.6 6.2-25 1-3.2 1.7-5.2 3-5.3 2.4-.2 8.2 1.5 8.4 3.4s-.8 3.4-2.4 7.4c-5.6 14.7-6.5 17.8-6.2 21.8.2 2.4 1.5 3.6 3 3.4 2.8-.2 9-9.4 12.4-15.1zM231 62c.3 2.9-2.4 8.4-5.9 8.7s-5.8-1.8-6-4.9 3.1-7.9 5.7-8.1c3-.2 6 1.4 6.2 4.3z"/>
  <path class="cls-2" d="M254.1 107.3c-.6-7.3 9.5-22.9 9.3-25.5a1.28 1.28 0 00-1.4-1.1c-1.1.1-5 3.9-9 9.8-2.5 3.6-5.1 8.4-7.7 12.7-6.7 11.3-5.6 14.2-7.3 14.3-2.8.2-9.5-1.9-9.9-6.4-.7-8.1 8.4-30.8 8.7-34 0-.7.4-.8 1.5-.9 3.4-.3 8 1.7 8.3 4.3s-7.5 18.7-7.1 22.5c0 0 5.3-8.7 10.7-16.1s10.2-12.2 13.4-12.5c4.9-.4 9.9 2.5 10.2 5.6.4 4.3-9.6 21.3-9 28 .3 3 1.5 3.9 1.6 5a2.46 2.46 0 01-2.1 2.4c-4.1.2-9.7-2.4-10.2-8.1zm40.5-7.8c-.5-6.1 3-16.9 6.7-26.4-2.5-.8-4.2-3-4.3-3.9 0-.6.5-1.4 1.1-1.4s1.8.9 5 .9c3.2-7.9 6.1-14.2 6-15s.1-1.4.9-1.5c2.4-.2 6.8 2.9 7.1 6.6.2 2.4-.6 3.4-3 8.8 4-.5 7.7-1.1 8.5-1.2 1.5-.1 1.9.1 2 1.1s-2.2 5.8-5.7 6.1c-1.6.1-4.4.2-7.3.2l-2.6 7.1c-4.7 13.2-4.8 17.7-4.6 19.7.3 3 1.7 5.4 4.9 5.1 4-.3 9.8-9 13.2-14.7 1.4-2.4 1.8-3.2 2.3-3.2.8-.1 2.5 2.1 2.6 3.5s-.2 2.6-1.9 5.3c-3.2 5-8.8 14.1-15.1 14.6-6.3.2-15.2-4.2-15.8-11.7z"/>
  <path class="cls-2" d="M350.1 71.5c.7-.1 4.7.6 5.3 7 .4 4.8-1.8 13.1-5.8 20 6.1-1.4 9.4-6 12.5-11.2 1.4-2.4 1.8-3.2 2.3-3.2.8-.1 2.5 2.1 2.6 3.5s-.3 2.4-2 5.3a24.6 24.6 0 01-19 12l-1.2.1c-2.8 2.7-6 4.7-9.5 5-6.4.6-13.1-5.1-13.7-12.4-.8-9.6 9.5-29.8 17.6-30.5 2.8-.3 9.4 2.3 10.9 4.4zM332 100.2c.2 2.7 1.8 3.7 3.2 3.6a5.18 5.18 0 002.9-1.4 4.18 4.18 0 01-.4-1c-.1-1.7 1.9-4.2 3.4-4.4a2.34 2.34 0 011.1.2c3.6-6.3 6.3-15.5 6-19.4-.2-2.1-1.2-3.2-2.8-3.1-5.5.5-14.1 16.9-13.4 25.5z"/>
  <path class="cls-2" d="M386.1 93.7c-2.3 4.4-6.6 10.8-11.8 11.3s-12.6-2.3-13.3-10.3c-.8-9.7 7-24.7 8.6-29.5.5-1.4 1.1-2 1.6-2 1.4-.1 8.2 2.5 8.4 4.7s-.2 2.9-3.5 11.4c-3.3 8.7-5 13.4-4.6 18.2.1 1.5 1.1 2.5 2 2.4 1.7-.1 6.4-4.5 11.7-13.7a84.56 84.56 0 008.5-21.1c.2-1.2.8-1.9 1.7-2 1.9-.2 7.6 2.9 7.7 4.6s-.3 4.9-3.8 14.5-3.8 11.1-3.6 12.8a2.24 2.24 0 002.7 2.1c3.8-.3 9.7-8.4 13.1-14.1 1.4-2.4 1.8-3.2 2.3-3.2.8-.1 2.5 2.1 2.6 3.5s-.2 2.6-1.9 5.3c-3.2 5-9.4 13.7-15.7 14.3-6 .4-12.3-4.5-12.7-9.2z"/>
  <path class="cls-2" d="M411.3 85.9c-.9-10.2 10.5-25.8 19-26.5 5.6-.5 10.4 3.4 10.7 7 .4 4.2-2.3 12.3-4.7 12.5s-4.7-2-4.8-2.6a2.34 2.34 0 01.7-1.3c1.5-1.8 4-5.7 3.7-8.3a1.14 1.14 0 00-1.3-1.1c-5.5.5-13.4 14-12.7 22 .4 4.8 4 8 8.1 7.6 5.6-.5 11.5-9.5 14.9-15.2 1.4-2.4 1.8-3.2 2.3-3.2.8-.1 2.5 2.1 2.6 3.5s-.2 2.6-1.9 5.3c-3.2 5-9.2 14.2-17.9 14.9-8.2.7-17.7-4.1-18.7-14.6z"/>
  <path class="cls-2" d="M467.5 87.1c-.6-6.7 8.3-20.3 8-23.2-.1-1-.7-1.5-1.4-1.4-1.9.2-11.7 13-17.3 22.7s-5.5 14.1-7.4 14.2-7.1-2.6-7.3-5.2.2-6.1 4-19.4c4.6-16.1 12.4-34.1 12.2-36-.1-.7 0-1.1.9-1.2s7.4 2.3 7.7 5.2-2.3 6.7-6.1 16.8c-4 10.5-7 20.8-7 20.8s14.6-23.7 22.4-24.4c5.7-.5 9.6 3.7 9.9 7.3.5 5.9-9.3 21.2-8.9 25.8.1 1.7 1.8 2.4 1.9 3.3a3.5 3.5 0 01-2.7 3.2c-2.9.2-8.3-1.8-8.9-8.5z"/>
  <path class="cls-5" d="M107.3 133.3c-7.2 14-17.2 26.2-28 27.1-6.2.5-14.4-4.9-14.7-9.1-.7-8.1 17.1-13.1 32.8-18.9 2.4-4.6 3.9-8.1 3.9-8.1a18.45 18.45 0 01-6.9 1.7c-11.1 1-23.2-7.9-24.1-18.2-1.8-20.2 22.3-52.6 39.8-54.2 7.9-.7 16.3 6.5 16.9 13.1.7 7.5-7.9 22-11.8 22.3-1.5.1-4.9-2-5.1-4.5-.1-1.6 1.8-5.4 3-7.8 2-3.7 2.6-5.4 4.5-5.5 1.2-.1 2.8 1.4 2.8 1.4a17 17 0 001-6.6 5.71 5.71 0 00-6.1-5.3c-16.1 1.4-33.1 31.8-31.6 48.7.4 4.3 3.6 11.5 9.4 10.9 5.2-.5 10.5-6.3 13.3-11.3 3.6-6.4 5.3-10.4 6.6-10.5s7.6 3.6 7.8 5.4-2.8 5.6-10 22a66.79 66.79 0 0018.7-19.5c1.4-2.4 1.8-3.2 2.3-3.2.8-.1 2.5 2.1 2.6 3.5s-.2 2.6-1.9 5.3c-3 4.7-13 15-25.2 21.3zm-14 6.1c-11.3 4.7-21.5 9.2-21.2 12.7.2 2 2 3.1 4.3 2.8 6.1-.5 12.2-8.1 16.9-15.5z"/>
  <path class="cls-5" d="M129 110.4c-.9-9.8 9.5-25.8 16.3-26.4 4.5-.4 11.9 3.1 12.3 7.2.3 3.1-2 9.6-6.6 14.8-3.6 4.2-11.7 5.1-11.7 5.1a13.89 13.89 0 000 2.2 6.28 6.28 0 006.8 5.9c6.4-.6 13.1-9.8 16.5-15.5 1.4-2.4 1.8-3.2 2.3-3.2.8-.1 2.5 2.1 2.6 3.5s-.2 2.6-1.9 5.3c-3.2 5-10.2 14.6-20.1 15.4-6.9.5-15.7-4.6-16.5-14.3zm22.3-17.8c0-.6-.6-.9-1.3-.8-2.2.2-10.3 12.4-10.1 14.8 3.6-.3 11.6-11 11.4-14z"/>
  <path class="cls-5" d="M161.9 110.1c-.6-6.7 3.7-18.8 7.7-29-3.2-.4-5.5-3-5.6-4.2 0-.6.5-1.4 1.1-1.4.8-.1 2.1 1.1 6.4.9 2.7-6.5 4.9-11.4 4.8-12.2s.1-1.4.9-1.5c2.4-.2 6.8 2.9 7.1 6.6.2 1.9-.3 3-1.6 5.7 3.3-.5 6.1-.9 6.8-1 1.5-.1 1.9.1 2 1.1s-2.2 5.8-5.7 6.1c-1.4.1-3.6.2-6 .2-1 2.5-2.3 5.7-3.7 9.8-4.7 13.2-4.8 17.7-4.6 19.7.4 4.8 2.5 6.4 2.6 7.9a3.23 3.23 0 01-2.3 2.8c-3.3.3-9.2-4.1-9.9-11.5zm67.4-12.3c1.4-2.4 1.8-3.2 2.3-3.2.8-.1 2.5 2.1 2.6 3.5s-.2 2.6-1.9 5.3c-3.2 5-8.9 14.2-15.2 14.7-5.3.5-11.6-3.7-12.2-10.9-.7-7.8 3.7-16.6 6.2-25 1-3.2 1.7-5.2 3-5.3 2.4-.2 8.2 1.5 8.4 3.4s-.8 3.4-2.4 7.4c-5.6 14.7-6.5 17.8-6.2 21.8.2 2.4 1.5 3.6 3 3.4 2.8-.2 9-9.4 12.4-15.1zM230 61c.3 2.9-2.4 8.4-5.9 8.7s-5.8-1.8-6-4.9 3.1-7.9 5.7-8.1c3-.2 6 1.4 6.2 4.3z"/>
  <path class="cls-5" d="M253.1 106.3c-.6-7.3 9.5-22.9 9.3-25.5a1.28 1.28 0 00-1.4-1.1c-1.1.1-5 3.9-9 9.8-2.5 3.6-5.1 8.4-7.7 12.7-6.7 11.3-5.6 14.2-7.3 14.3-2.8.2-9.5-1.9-9.9-6.4-.7-8.1 8.4-30.8 8.7-34 0-.7.4-.8 1.5-.9 3.4-.3 8 1.7 8.3 4.3s-7.5 18.7-7.1 22.5c0 0 5.3-8.7 10.7-16.1s10.2-12.2 13.4-12.5c4.9-.4 9.9 2.5 10.2 5.6.4 4.3-9.6 21.3-9 28 .3 3 1.5 3.9 1.6 5a2.46 2.46 0 01-2.1 2.4c-4.1.2-9.7-2.4-10.2-8.1zm40.5-7.8c-.5-6.1 3-16.9 6.7-26.4-2.5-.8-4.2-3-4.3-3.9 0-.6.5-1.4 1.1-1.4s1.8.9 5 .9c3.2-7.9 6.1-14.2 6-15s.1-1.4.9-1.5c2.4-.2 6.8 2.9 7.1 6.6.2 2.4-.6 3.4-3 8.8 4-.5 7.7-1.1 8.5-1.2 1.5-.1 1.9.1 2 1.1s-2.2 5.8-5.7 6.1c-1.6.1-4.4.2-7.3.2l-2.6 7.1c-4.7 13.2-4.8 17.7-4.6 19.7.3 3 1.7 5.4 4.9 5.1 4-.3 9.8-9 13.2-14.7 1.4-2.4 1.8-3.2 2.3-3.2.8-.1 2.5 2.1 2.6 3.5s-.2 2.6-1.9 5.3c-3.2 5-8.8 14.1-15.1 14.6-6.3.2-15.2-4.2-15.8-11.7z"/>
  <path class="cls-5" d="M349.1 70.5c.7-.1 4.7.6 5.3 7 .4 4.8-1.8 13.1-5.8 20 6.1-1.4 9.4-6 12.5-11.2 1.4-2.4 1.8-3.2 2.3-3.2.8-.1 2.5 2.1 2.6 3.5s-.3 2.4-2 5.3a24.6 24.6 0 01-19 12l-1.2.1c-2.8 2.7-6 4.7-9.5 5-6.4.6-13.1-5.1-13.7-12.4-.8-9.6 9.5-29.8 17.6-30.5 2.8-.3 9.4 2.3 10.9 4.4zM331 99.2c.2 2.7 1.8 3.7 3.2 3.6a5.18 5.18 0 002.9-1.4 4.18 4.18 0 01-.4-1c-.1-1.7 1.9-4.2 3.4-4.4a2.34 2.34 0 011.1.2c3.6-6.3 6.3-15.5 6-19.4-.2-2.1-1.2-3.2-2.8-3.1-5.5.5-14.1 16.9-13.4 25.5z"/>
  <path class="cls-5" d="M385.1 92.7c-2.3 4.4-6.6 10.8-11.8 11.3s-12.6-2.3-13.3-10.3c-.8-9.7 7-24.7 8.6-29.5.4-1.4 1.1-2 1.6-2 1.4-.1 8.2 2.5 8.4 4.7s-.2 2.9-3.5 11.4c-3.3 8.7-5 13.4-4.6 18.2.1 1.5 1.1 2.5 2 2.4 1.7-.1 6.4-4.5 11.7-13.7a84.56 84.56 0 008.5-21.1c.2-1.2.8-1.9 1.7-2 1.9-.2 7.6 2.9 7.7 4.6s-.3 4.9-3.8 14.5-3.8 11.1-3.6 12.8a2.24 2.24 0 002.7 2.1c3.8-.3 9.7-8.4 13.1-14.1 1.4-2.4 1.8-3.2 2.3-3.2.8-.1 2.5 2.1 2.6 3.5s-.2 2.6-1.9 5.3c-3.2 5-9.4 13.7-15.7 14.3-6 .4-12.3-4.5-12.7-9.2z"/>
  <path class="cls-5" d="M410.3 84.9c-.9-10.2 10.5-25.8 19-26.5 5.6-.5 10.4 3.4 10.7 7 .4 4.2-2.3 12.3-4.7 12.5s-4.7-2-4.8-2.6a2.34 2.34 0 01.7-1.3c1.5-1.8 4-5.7 3.7-8.3a1.14 1.14 0 00-1.3-1.1c-5.5.5-13.4 14-12.7 22 .4 4.8 4 8 8.1 7.6 5.6-.5 11.5-9.5 14.9-15.2 1.4-2.4 1.8-3.2 2.3-3.2.8-.1 2.5 2.1 2.6 3.5s-.2 2.6-1.9 5.3c-3.2 5-9.2 14.2-17.9 14.9-8.2.7-17.7-4.1-18.7-14.6z"/>
  <path class="cls-5" d="M466.5 86.1c-.6-6.7 8.3-20.3 8-23.2-.1-1-.7-1.5-1.4-1.4-1.9.2-11.7 13-17.3 22.7s-5.5 14.1-7.4 14.2-7.1-2.6-7.3-5.2.2-6.1 4-19.4c4.6-16.1 12.4-34.1 12.2-36-.1-.7 0-1.1.9-1.2s7.4 2.3 7.7 5.2-2.3 6.7-6.1 16.8c-4 10.5-7 20.8-7 20.8s14.6-23.7 22.4-24.4c5.7-.5 9.6 3.7 9.9 7.3.5 5.9-9.3 21.2-8.9 25.8.1 1.7 1.8 2.4 1.9 3.3a3.5 3.5 0 01-2.7 3.2c-2.9.2-8.3-1.8-8.9-8.5z"/>
</svg>
