<svg xmlns="http://www.w3.org/2000/svg" width="512" height="512" viewBox="0 0 512 512">
  <path d="M299.5 459.5l4-4 3.5.5 83-175 44 104-34.79-131.99-21.71-13.51-59.81 79.96-62.19-80.96-5-2 39.43 121.36 9.57 101.64z"/>
  <path d="M434 385l-27.5-137.5-29-8 21.71 13.51L434 385z"/>
  <path d="M377.5 239.5l61-187-183 186 62.19 80.96 59.81-79.96z"/>
  <path d="M229.5 255.5l21-19 39.43 121.36-19.72-60.68-40.71-41.68z"/>
  <path d="M299.5 459.5l-56-48-9.69-26.5-85.95-140.12L57.5 48.5l172 207 40.71 41.68 19.72 60.68 9.57 101.64z"/>
  <path d="M243.5 411.5l-52.16 19.21L63.5 92.5l14 18-20-62 89.22 193.9L233.81 385l9.69 26.5z"/>
  <path d="M438.5 52.5l-183 186"/>
  <path d="M438.5 52.5l-61 187-59.81 79.96-14.23-18.52L438.5 52.5"/>
  <path d="M438.5 52.5L273.4 261.81l-17.9-23.31"/>
</svg>
